<svg width="73" height="80" viewBox="0 0 73 80" fill="none" xmlns="http://www.w3.org/2000/svg">
<path d="M37.3964 19.0652C36.5209 18.7025 35.5135 18.9032 34.8439 19.5727L30.1595 24.2553C29.2448 25.1697 29.2448 26.6521 30.1595 27.5664C31.074 28.481 32.5571 28.481 33.4718 27.5666L34.158 26.8807V40.115C34.158 41.4081 35.2067 42.4564 36.5003 42.4564C37.7939 42.4564 38.8425 41.4081 38.8425 40.115V21.2283C38.8424 20.2813 38.2715 19.4277 37.3964 19.0652Z" fill="#1168B6"/>
<path d="M72.781 68.7531L62.4439 46.5914C65.2983 41.9337 66.9487 36.4548 66.9487 30.5937C66.9489 13.725 53.289 0 36.4999 0C19.7109 0 6.05101 13.725 6.05101 30.5937C6.05101 36.455 7.70147 41.9337 10.5558 46.5914L0.219011 68.7531C-0.180668 69.61 -0.024517 70.6262 0.615564 71.3239C1.2558 72.0215 2.25351 72.2667 3.14353 71.942L13.3931 68.2129L17.1236 78.4587C17.4468 79.3484 18.2759 79.9556 19.2221 79.9978C20.1559 80.0384 21.0413 79.517 21.4472 78.6476L29.9277 60.4678C32.045 60.9376 34.2436 61.1873 36.4999 61.1873C38.7563 61.1873 40.9549 60.9376 43.0722 60.4678L51.5526 78.6476C51.9382 79.475 52.7689 79.9994 53.6746 79.9994C54.66 79.9994 55.539 79.3844 55.8763 78.4587L59.6068 68.2129L69.8564 71.942C70.7479 72.2667 71.7443 72.0215 72.3843 71.3239C73.0244 70.6262 73.1807 69.61 72.781 68.7531ZM19.5907 71.5454L16.994 64.4106C16.7815 63.8284 16.3459 63.3523 15.7823 63.0901C15.2202 62.8279 14.5753 62.7998 13.9913 63.012L6.85522 65.6078L13.7257 50.8775C16.8955 54.4645 20.8882 57.3022 25.4041 59.0847L19.5907 71.5454ZM36.4999 56.5047C22.2936 56.5047 10.7356 44.8806 10.7356 30.5937C10.7356 16.3069 22.2936 4.68265 36.4999 4.68265C50.7063 4.68265 62.2643 16.3067 62.2643 30.5936C62.2643 44.8805 50.7063 56.5047 36.4999 56.5047ZM59.0088 63.012C57.7939 62.5703 56.448 63.1962 56.0061 64.4106L53.4093 71.5454L47.5959 59.0848C52.1117 57.3023 56.1044 54.4645 59.2743 50.8776L66.1448 65.6079L59.0088 63.012Z" fill="#1168B6"/>
<path d="M36.5 9.52155C24.8763 9.52155 15.42 18.9744 15.42 30.5937C15.42 42.2194 24.8559 51.822 36.5 51.822C48.1283 51.822 57.5799 42.2334 57.5799 30.5937C57.5799 18.9744 48.1236 9.52155 36.5 9.52155ZM36.5 47.1392C27.4589 47.1392 20.1043 39.7172 20.1043 30.5936C20.1043 21.5559 27.4589 14.2041 36.5 14.2041C45.541 14.2041 52.8956 21.5561 52.8956 30.5937C52.8956 39.7172 45.541 47.1392 36.5 47.1392Z" fill="#1168B6"/>
</svg>
