<svg width="70" height="80" viewBox="0 0 70 80" fill="none" xmlns="http://www.w3.org/2000/svg">
<path d="M69.7522 38.9516L60.4194 20.2016C59.9675 19.405 59.3332 18.9062 58.3319 18.9062H11.668C10.6924 18.9062 10.04 19.3925 9.58055 20.2016L0.247764 38.9516C-0.184344 39.8734 -0.0364202 40.7998 0.575966 41.5391L33.2407 79.1953C33.684 79.7063 34.3249 80 35 80C35.675 80 36.3159 79.7063 36.7592 79.1953L69.424 41.5391C70.0324 40.8036 70.1869 39.8783 69.7522 38.9516ZM54.5568 23.5938L48.6009 35.5594L39.6664 23.5938H54.5568ZM44.3327 37.6562H25.6672L35 25.1562L44.3327 37.6562ZM30.3336 23.5938L21.399 35.5594L15.4431 23.5938H30.3336ZM11.668 26.4906L17.2257 37.6562H6.11031L11.668 26.4906ZM7.46357 42.3438H19.4593L30.962 69.4344L7.46357 42.3438ZM35 66.9953L24.5332 42.3438H45.4667L35 66.9953ZM39.0379 69.4344L50.5406 42.3438H62.5364L39.0379 69.4344ZM52.7743 37.6562L58.3319 26.4906L63.8896 37.6562H52.7743Z" fill="#1168B6"/>
<path d="M35 0C33.7114 0 32.6668 1.04937 32.6668 2.34375V7.1875C32.6668 8.48188 33.7114 9.53125 35 9.53125C36.2885 9.53125 37.3332 8.48188 37.3332 7.1875V2.34375C37.3332 1.04937 36.2885 0 35 0Z" fill="#1168B6"/>
<path d="M25.101 10.3355L21.8014 7.02094C20.8903 6.10562 19.413 6.10562 18.5018 7.02094C17.5906 7.93625 17.5906 9.42016 18.5018 10.3355L21.8014 13.65C22.7124 14.5653 24.1899 14.5655 25.101 13.65C26.0122 12.7347 26.0122 11.2508 25.101 10.3355Z" fill="#1168B6"/>
<path d="M51.498 7.02094C50.587 6.10562 49.1096 6.10562 48.1984 7.02094L44.8988 10.3355C43.9876 11.2508 43.9876 12.7347 44.8988 13.65C45.8098 14.5653 47.2873 14.5655 48.1984 13.65L51.498 10.3355C52.4092 9.42016 52.4092 7.93625 51.498 7.02094Z" fill="#1168B6"/>
</svg>
