<svg width="70" height="80" viewBox="0 0 70 80" fill="none" xmlns="http://www.w3.org/2000/svg">
<path d="M68.2127 49.5312C69.3233 48.2859 70 46.6422 70 44.8438C70 40.9672 66.8593 37.8125 63 37.8125H49.4138C50.7593 33.7109 51.3333 28.2688 51.3333 25.9359V23.5938C51.3333 18.425 47.1458 14.2188 42 14.2188H39.6667C38.5964 14.2188 37.6631 14.95 37.4033 15.9937L36.1324 21.1016C34.3513 28.2547 28.6969 36.1469 22.8449 37.5812C21.8198 34.975 19.2889 33.125 16.3333 33.125H2.33333C1.04533 33.125 0 34.175 0 35.4688V77.6562C0 78.95 1.04533 80 2.33333 80H16.3333C19.1162 80 21.5242 78.3609 22.652 75.9922L30.6693 78.6766C33.2904 79.5547 36.022 80 38.7862 80H58.3333C62.1927 80 65.3333 76.8453 65.3333 72.9688C65.3333 72.0547 65.1591 71.1797 64.8418 70.3781C67.8098 69.5641 70 66.8313 70 63.5938C70 61.7953 69.3233 60.1516 68.2127 58.9062C69.3233 57.6609 70 56.0172 70 54.2188C70 52.4203 69.3233 50.7766 68.2127 49.5312ZM18.6667 72.9688C18.6667 74.2609 17.6198 75.3125 16.3333 75.3125H4.66667V37.8125H16.3333C17.6198 37.8125 18.6667 38.8641 18.6667 40.1562V72.9688ZM58.3333 51.875H63C64.2864 51.875 65.3333 52.9266 65.3333 54.2188C65.3333 55.5109 64.2864 56.5625 63 56.5625H58.3333C57.0453 56.5625 56 57.6125 56 58.9062C56 60.2 57.0453 61.25 58.3333 61.25H63C64.2864 61.25 65.3333 62.3016 65.3333 63.5938C65.3333 64.8859 64.2864 65.9375 63 65.9375H58.3333C57.0453 65.9375 56 66.9875 56 68.2812C56 69.575 57.0453 70.625 58.3333 70.625C59.6198 70.625 60.6667 71.6766 60.6667 72.9688C60.6667 74.2609 59.6198 75.3125 58.3333 75.3125H38.7862C36.5244 75.3125 34.2891 74.9484 32.144 74.2297L23.3333 71.2797V42.2781C26.9936 41.5797 30.576 39.2516 33.81 35.4406C36.9678 31.7188 39.5282 26.7844 40.6591 22.2391L41.4882 18.9062H42C44.5729 18.9062 46.6667 21.0094 46.6667 23.5938V25.9359C46.6667 29.0828 45.6867 35.1188 44.4329 37.8125H39.6667C38.3787 37.8125 37.3333 38.8625 37.3333 40.1562C37.3333 41.45 38.3787 42.5 39.6667 42.5H63C64.2864 42.5 65.3333 43.5516 65.3333 44.8438C65.3333 46.1359 64.2864 47.1875 63 47.1875H58.3333C57.0453 47.1875 56 48.2375 56 49.5312C56 50.825 57.0453 51.875 58.3333 51.875Z" fill="#1168B6"/>
<path d="M11.6667 70.625C12.9553 70.625 14 69.5757 14 68.2812C14 66.9868 12.9553 65.9375 11.6667 65.9375C10.378 65.9375 9.33333 66.9868 9.33333 68.2812C9.33333 69.5757 10.378 70.625 11.6667 70.625Z" fill="#1168B6"/>
<path d="M44.3333 0C43.0447 0 42 1.04937 42 2.34375V7.1875C42 8.48188 43.0447 9.53125 44.3333 9.53125C45.622 9.53125 46.6667 8.48188 46.6667 7.1875V2.34375C46.6667 1.04937 45.622 0 44.3333 0Z" fill="#1168B6"/>
<path d="M34.4338 10.3356L31.134 7.02109C30.2229 6.10578 28.7454 6.10578 27.8342 7.02109C26.9229 7.9364 26.9229 9.42031 27.8342 10.3356L31.134 13.6502C32.0451 14.5653 33.5227 14.5655 34.4338 13.6502C35.345 12.7348 35.345 11.2509 34.4338 10.3356Z" fill="#1168B6"/>
<path d="M60.8325 7.02109C59.9214 6.10578 58.4439 6.10578 57.5327 7.02109L54.2329 10.3355C53.3217 11.2508 53.3217 12.7347 54.2329 13.65C55.144 14.5653 56.6214 14.5655 57.5327 13.6502L60.8325 10.3356C61.7437 9.42031 61.7437 7.9364 60.8325 7.02109Z" fill="#1168B6"/>
</svg>
