<svg width="81" height="80" viewBox="0 0 81 80" fill="none" xmlns="http://www.w3.org/2000/svg">
<path d="M77.5014 39.4668C74.8264 37.2622 70.5984 37.0731 67.8234 40.0513L60.9345 47.4465C60.0438 44.584 57.3704 42.4997 54.219 42.4997H41.9254C40.9925 42.4997 40.6802 42.1434 39.0598 40.895C32.8817 35.5091 23.6021 35.5263 17.4428 40.9466L12.9241 44.9246C10.8929 43.8496 8.52106 43.823 6.47877 44.8434L1.296 47.434C0.138133 48.0137 -0.330484 49.4214 0.247514 50.5793L14.3099 78.704C14.8897 79.8619 16.2974 80.3305 17.4553 79.7525L22.638 77.1603C25.1927 75.8839 26.6145 73.2775 26.5223 70.6245H54.2188C59.3547 70.6245 64.2625 68.1714 67.3437 64.0622L78.5952 49.0592C80.778 46.1512 80.4327 41.8871 77.5014 39.4668ZM20.541 72.9681L17.4551 74.5117L5.48809 50.5793L8.57559 49.0356C9.73346 48.4575 11.1396 48.9247 11.7193 50.0841L21.5895 69.8245C22.1677 70.9822 21.6989 72.3884 20.541 72.9681ZM74.8452 46.2466L63.5938 61.2495C61.3923 64.1854 57.8876 65.9369 54.219 65.9369H24.8864L16.1036 48.37L20.5395 44.4654C24.9535 40.5825 31.6097 40.5825 36.0237 44.4654C38.6237 46.7544 40.2408 47.1872 41.9253 47.1872H54.2188C55.5111 47.1872 56.5625 48.2389 56.5625 49.5309C56.5625 50.823 55.5109 51.8747 54.2188 51.8747H42.2487C40.9549 51.8747 39.905 52.9247 39.905 54.2184C39.905 55.512 40.955 56.5621 42.2487 56.5621H55.7892C57.7345 56.5621 59.6096 55.7464 60.9345 54.3231L71.2531 43.2466C72.1969 42.234 73.6437 42.3184 74.5313 43.095C75.4593 43.9074 75.5594 45.2965 74.8452 46.2466Z" fill="#1168B6"/>
<path d="M49.2814 15.9936C50.886 14.3109 51.8751 12.0359 51.8751 9.53111C51.8751 4.37178 47.7065 0 42.5003 0C37.3331 0 32.9692 4.36397 32.9692 9.53111C32.9692 11.9592 33.9208 14.2513 35.6488 16.0124C31.363 18.4155 28.2817 23.0279 28.2817 28.4372V30.7809C28.2817 32.0746 29.3318 33.1246 30.6255 33.1246H54.219C55.5127 33.1246 56.5627 32.0746 56.5627 30.7809V28.4372C56.5626 23.1341 53.6457 18.4498 49.2814 15.9936ZM42.5003 4.68758C45.0409 4.68758 47.1877 6.90629 47.1877 9.53126C47.1877 12.1156 45.0846 14.2187 42.5003 14.2187C39.8753 14.2187 37.6566 12.0719 37.6566 9.53126C37.6566 6.9516 39.9206 4.68758 42.5003 4.68758ZM32.9692 28.4372C32.9692 23.2701 37.3331 18.9061 42.5003 18.9061C47.669 18.9061 51.8751 23.181 51.8751 28.4372H32.9692Z" fill="#1168B6"/>
</svg>
